<svg width="18" height="4" viewBox="0 0 18 4" fill="none" xmlns="http://www.w3.org/2000/svg">
<path d="M3.1746 1.5873C3.1746 2.46394 2.46394 3.1746 1.5873 3.1746C0.710659 3.1746 0 2.46394 0 1.5873C0 0.710659 0.710659 0 1.5873 0C2.46394 0 3.1746 0.710659 3.1746 1.5873Z" fill="#858597"/>
<path d="M10.3492 1.5873C10.3492 2.46394 9.63855 3.1746 8.76191 3.1746C7.88527 3.1746 7.17461 2.46394 7.17461 1.5873C7.17461 0.710659 7.88527 0 8.76191 0C9.63855 0 10.3492 0.710659 10.3492 1.5873Z" fill="#858597"/>
<path d="M17.5238 1.5873C17.5238 2.46394 16.8132 3.1746 15.9365 3.1746C15.0599 3.1746 14.3492 2.46394 14.3492 1.5873C14.3492 0.710659 15.0599 0 15.9365 0C16.8132 0 17.5238 0.710659 17.5238 1.5873Z" fill="#858597"/>
</svg>
