<svg width="16" height="16" viewBox="0 0 16 16" fill="none" xmlns="http://www.w3.org/2000/svg">
<path fill-rule="evenodd" clip-rule="evenodd" d="M0.666672 7.00001C0.666672 3.50222 3.50222 0.666672 7.00001 0.666672C10.4978 0.666672 13.3333 3.50222 13.3333 7.00001C13.3333 8.50876 12.8058 9.89431 11.925 10.9822L14.3738 13.431C14.6341 13.6913 14.6341 14.1134 14.3738 14.3738C14.1134 14.6341 13.6913 14.6341 13.431 14.3738L10.9822 11.925C9.89431 12.8058 8.50876 13.3333 7.00001 13.3333C3.50222 13.3333 0.666672 10.4978 0.666672 7.00001ZM7.00001 2.00001C4.2386 2.00001 2.00001 4.2386 2.00001 7.00001C2.00001 9.76142 4.2386 12 7.00001 12C9.76142 12 12 9.76142 12 7.00001C12 4.2386 9.76142 2.00001 7.00001 2.00001Z" fill="#B8B8D2"/>
</svg>
